PathFileType	4	(X/Y/Z)	s03c0201.trc
DataRate	CameraRate	NumFrames	NumMarkers	Units	OrigDataRate	OrigDataStartFrame	OrigNumFrames
200	200	6	52	mm	200	1250	2000
Frame#	Time	racr			lacr			c7			jug			rlel			rdr			llel			ldr			s2			lic			ric			lasi			rasi			rpsi			lpsi			rgt			lgt			rth1			rth2			rth3			rth4			rlfc			rmfc			rsh1			rsh2			rsh3			rsh4			rlmal			rmmal			rcal			rtoe			rmt5			rmt1			lth1			lth2			lth4			lth3			llfc			lmfc			lsh1			lsh2			lsh3			lsh4			llmal			lmmal			lcal			ltoe			lmt1			lmt5			SBIKE			LBIKE			RBIKE			
		X1	Y1	Z1	X2	Y2	Z2	X3	Y3	Z3	X4	Y4	Z4	X5	Y5	Z5	X6	Y6	Z6	X7	Y7	Z7	X8	Y8	Z8	X9	Y9	Z9	X10	Y10	Z10	X11	Y11	Z11	X12	Y12	Z12	X13	Y13	Z13	X14	Y14	Z14	X15	Y15	Z15	X16	Y16	Z16	X17	Y17	Z17	X18	Y18	Z18	X19	Y19	Z19	X20	Y20	Z20	X21	Y21	Z21	X22	Y22	Z22	X23	Y23	Z23	X24	Y24	Z24	X25	Y25	Z25	X26	Y26	Z26	X27	Y27	Z27	X28	Y28	Z28	X29	Y29	Z29	X30	Y30	Z30	X31	Y31	Z31	X32	Y32	Z32	X33	Y33	Z33	X34	Y34	Z34	X35	Y35	Z35	X36	Y36	Z36	X37	Y37	Z37	X38	Y38	Z38	X39	Y39	Z39	X40	Y40	Z40	X41	Y41	Z41	X42	Y42	Z42	X43	Y43	Z43	X44	Y44	Z44	X45	Y45	Z45	X46	Y46	Z46	X47	Y47	Z47	X48	Y48	Z48	X49	Y49	Z49	X50	Y50	Z50	X51	Y51	Z51	X52	Y52	Z52	
1250	6.2500	497.195322	1407.139335	-127.507540	415.760152	1415.895202	-428.992694	389.688339	1494.615532	-259.449710	405.757328	1322.793324	-266.608110	549.698212	1194.237954	59.089036	735.666613	993.225720	-33.631679	481.957889	1169.229816	-539.745539	723.743467	983.299040	-461.531647	-113.215733	1198.245769	-180.049865	23.645224	1256.429455	-374.228301	67.847831	1234.451644	-11.103897	62.759830	1190.478328	-336.702604	94.456843	1168.262768	-58.877186	-85.860553	1247.718146	-132.695689	-92.536903	1255.478135	-214.395765	4.437934	1104.336230	-4.552285	6.407768	1176.480687	-397.338929	85.451776	958.668973	8.252206	155.845252	903.762413	11.194973	191.689005	826.032619	0.520034	185.069094	926.166758	5.207807	249.471303	712.782727	-33.631691	260.937551	703.358143	-152.269736	187.546727	557.508356	-14.948032	178.597148	470.511333	-34.029554	127.339243	398.961806	-39.920267	206.902418	463.684920	-58.253698	71.742382	279.754658	-69.354787	105.523296	288.341876	-147.350281	7.076714	250.262738	-110.786546	305.262295	164.309775	-108.356268	184.033002	174.861974	-40.786475	217.860215	189.123609	-152.860911	134.231777	1112.761996	-427.815705	220.120832	1108.486662	-434.367580	232.369439	1140.613982	-420.002286	294.831980	1059.627778	-442.074475	427.793539	1022.430087	-432.423714	438.991077	1002.385283	-299.670244	346.554077	869.439106	-445.691964	329.083837	787.497382	-427.417594	268.815192	720.334514	-421.345402	359.328122	774.368331	-406.315700	205.828577	610.040053	-401.646284	243.008885	617.736438	-314.024526	133.247633	576.160783	-352.835928	431.222569	493.629851	-358.790961	336.007597	505.084407	-314.712231	308.758082	501.809411	-427.739054	-214.365225	945.192806	-229.079187	-9.307969	81.656039	-433.232329	-9.275895	80.688256	-32.816415	
1251	6.2550	498.064592	1405.673984	-129.428784	414.160512	1415.495482	-430.034157	389.769290	1493.759075	-260.320331	405.294498	1321.915884	-268.001848	550.813975	1194.588978	59.361010	735.768262	993.181013	-33.545453	481.257336	1169.076912	-539.148510	723.235568	983.489355	-461.153466	-113.621889	1198.955729	-178.820020	22.079756	1257.907033	-373.468737	68.119084	1234.300866	-10.434445	61.469154	1190.925000	-336.044361	93.928219	1167.841319	-58.196801	-85.804471	1248.452041	-131.628665	-92.606834	1256.243440	-213.094127	4.599001	1104.571068	-3.998095	5.040574	1176.506860	-396.643361	87.073181	959.672769	8.245528	158.219325	905.710226	10.833986	195.037695	828.431954	0.419320	187.050282	928.433030	4.655202	253.830965	715.604631	-33.409670	264.524404	706.147976	-152.141528	188.692084	561.658693	-14.700966	177.466933	474.927446	-34.114755	124.505469	404.624942	-39.778231	205.365685	467.505409	-58.623585	65.597413	287.109730	-69.379357	99.631728	294.916687	-147.602777	0.277705	259.095281	-111.086739	296.277069	165.828410	-108.234793	175.257761	179.555564	-41.226919	209.661271	192.893969	-153.069354	132.955928	1111.376070	-427.282817	218.816166	1106.420948	-433.717003	231.296486	1138.587034	-419.653959	293.192637	1057.072285	-441.133098	426.382248	1018.973958	-431.129945	436.081416	999.087300	-298.187461	347.132678	864.764294	-444.840283	330.935512	782.402970	-427.039062	271.684530	714.410617	-421.420232	361.424677	769.665981	-406.096855	210.866800	602.135831	-402.193820	247.616351	610.693601	-314.252824	138.794297	565.868415	-353.386524	439.865314	493.867821	-359.398487	343.642587	501.867997	-315.000521	317.025474	497.217425	-428.129298	-214.373531	945.207375	-228.925933	-9.310515	81.703436	-433.194992	-9.250525	80.699025	-32.794348	
1252	6.2600	498.895833	1404.152174	-131.243486	412.643649	1415.141693	-430.792446	389.874736	1492.839855	-260.931285	404.902115	1320.988409	-269.245975	551.855749	1194.651968	59.656407	735.875785	993.066717	-33.714604	480.602208	1168.954199	-538.480540	722.672258	983.762592	-460.696617	-114.077876	1199.525171	-177.543187	20.634909	1259.243871	-372.708312	68.301947	1234.033829	-10.017441	60.180547	1191.230076	-335.434620	93.416460	1167.654137	-57.760508	-85.941158	1248.979687	-130.522217	-92.645533	1256.839378	-211.734268	4.740880	1104.720177	-3.350419	3.681893	1176.187022	-396.022069	89.173778	960.530693	7.657013	160.730944	907.906322	10.324261	198.524122	831.130885	0.109969	189.169346	930.958401	3.881811	258.320992	718.816348	-33.132739	268.406152	709.383939	-152.190603	190.139010	566.143573	-14.600398	177.016305	479.881309	-34.036152	121.965971	410.800699	-39.646236	204.485084	471.998455	-58.885404	59.884244	295.060040	-69.536150	94.056311	302.024824	-147.748577	-6.085094	268.578289	-111.389270	287.505398	167.638555	-108.108326	166.881957	184.882651	-41.458568	201.782652	197.087646	-153.346399	131.661671	1109.255862	-426.901533	217.516870	1103.553309	-433.285723	230.190373	1135.761576	-419.476161	291.467582	1053.559951	-440.395839	424.666838	1014.232576	-430.447765	433.640139	994.745408	-297.355669	347.318399	858.962382	-444.188622	332.443797	776.244911	-426.831131	274.198319	707.391306	-421.546448	362.899059	764.307749	-407.296181	215.877734	593.322712	-402.957457	252.033453	602.646588	-314.632137	144.393555	554.587794	-354.072806	448.780871	493.492953	-358.355877	350.966417	497.978058	-315.330668	325.321358	491.487267	-427.759605	-214.435567	945.230892	-228.841470	-9.306810	81.754338	-433.158360	-9.252236	80.688494	-32.761777	
1253	6.2650	499.721693	1402.633871	-132.734732	411.274238	1414.860307	-431.384625	389.970721	1492.024383	-261.330517	404.504972	1320.171066	-270.322963	552.796115	1194.729960	59.982914	736.053908	992.899632	-33.538376	479.985782	1168.934931	-537.854843	722.124414	983.986887	-460.304306	-114.438678	1200.092896	-176.480473	19.431901	1260.456421	-372.016104	68.784925	1233.663161	-9.632252	58.918185	1191.400216	-334.913463	92.860384	1167.606026	-57.582288	-86.052768	1249.404774	-129.467538	-92.685133	1257.237516	-210.347809	4.875595	1104.813199	-2.726683	2.365469	1175.493774	-395.384083	91.001708	961.885845	7.548917	163.366792	910.371873	9.747007	202.294253	834.111164	-0.317225	191.401191	933.736862	3.056213	262.913616	722.398711	-32.833996	272.644347	713.013741	-152.316238	191.847861	570.929559	-14.636450	176.537286	485.178888	-34.253214	119.800971	417.381553	-39.718210	203.619500	476.677926	-59.320389	54.601018	303.427884	-69.665270	89.021328	309.516250	-148.096916	-12.080869	278.655736	-111.808318	279.001335	170.107610	-108.009988	158.924947	190.894802	-41.636222	194.269965	201.892894	-153.377711	130.349154	1106.515329	-426.695654	216.127510	1099.903985	-433.125956	229.125650	1132.137224	-419.717006	289.613882	1049.215279	-439.896607	422.392895	1008.403469	-430.161585	431.093727	989.092194	-296.956030	346.746522	852.386314	-444.863319	334.028527	769.745778	-428.903860	276.484148	699.088529	-421.765338	364.214845	757.338671	-407.053255	220.539481	583.453988	-403.680492	256.131437	593.891742	-315.037034	149.688116	542.561443	-354.882242	455.347648	492.055049	-359.717928	357.959817	493.424549	-315.701134	333.033698	485.398469	-428.262849	-214.420492	945.239152	-228.715678	-9.117572	81.842835	-433.343319	-9.232518	80.691624	-32.728756	
1254	6.2700	500.388073	1401.146849	-133.959433	410.020112	1414.699102	-431.755151	390.096158	1491.236679	-261.508731	404.113542	1319.383813	-271.178661	553.667541	1194.619466	60.308182	736.220327	992.651369	-33.337861	479.281037	1169.054201	-537.132220	721.463842	984.203136	-459.877682	-114.788858	1200.428243	-175.592261	18.343768	1261.587789	-371.472232	68.896847	1233.199370	-9.408865	57.706251	1191.442565	-334.521128	92.446575	1167.436175	-57.425071	-86.189344	1249.708492	-128.482772	-92.816160	1257.495334	-209.035181	4.985176	1104.842104	-2.106923	0.687215	1174.618856	-394.421952	92.849251	963.108888	7.092543	166.130308	913.027231	9.061439	206.304111	837.415711	-0.787015	193.704455	936.790275	2.106042	268.019466	726.311843	-32.893464	276.987831	716.735239	-152.529223	193.729488	575.912172	-14.701030	176.262048	490.648734	-34.532349	117.893618	424.306591	-39.949257	203.012513	481.464063	-59.725627	49.642303	312.299998	-69.913550	84.245892	317.505761	-148.513796	-18.003152	289.048973	-112.137997	270.755547	173.082373	-107.915653	151.232554	197.341457	-41.939644	186.827566	207.145418	-153.579835	129.065842	1103.262325	-426.590902	214.754127	1095.654059	-433.017652	228.366926	1128.152174	-420.873685	287.619285	1044.060050	-439.497051	420.201668	1001.774598	-429.459949	428.530366	982.506203	-296.914071	346.091480	844.202454	-444.882749	334.409855	760.482869	-427.013923	278.332028	689.630834	-422.149731	365.176539	749.064944	-406.346000	225.108685	572.685473	-404.224417	260.040144	584.045613	-315.348544	155.287937	529.370706	-355.513931	462.350716	490.050550	-359.858948	364.606845	488.221329	-316.107512	340.359593	478.654953	-428.978306	-214.412366	945.237428	-228.603027	-9.392070	81.814667	-433.097326	-9.500119	81.047299	-32.670297	
1255	6.2750	500.982069	1399.625315	-134.900821	408.919218	1414.663759	-431.911379	390.213231	1490.498786	-261.390995	403.744505	1318.660666	-271.867615	554.408916	1194.403571	60.675222	736.399005	992.329053	-32.992083	478.578812	1169.242853	-536.436388	720.826206	984.368609	-459.507942	-115.181692	1200.497783	-175.040181	17.477084	1262.531845	-371.149067	68.668561	1232.529180	-9.346505	56.568914	1191.363784	-334.297665	92.055012	1167.260353	-57.266591	-86.196860	1249.852456	-127.706251	-92.901311	1257.564284	-207.840828	5.119243	1104.916278	-1.588160	-0.545871	1173.505807	-393.931575	94.850287	964.732625	6.873678	168.989767	915.991197	8.345004	210.775742	840.898811	-1.220653	196.083716	940.130963	1.309454	273.031529	730.469886	-32.636156	281.468890	720.747051	-152.820171	195.748595	581.140995	-14.815525	176.158460	496.519099	-34.818720	116.171447	431.502780	-40.245616	202.591875	486.758876	-60.174934	44.889050	321.552803	-70.270605	81.008340	325.570060	-149.575905	-23.183077	299.764748	-112.685241	262.697996	176.806958	-107.832762	143.861212	204.303562	-42.166186	179.734694	212.863914	-153.841508	127.777503	1099.661196	-426.565419	213.268219	1090.824701	-433.166830	227.220307	1122.941441	-421.059343	285.469280	1038.088671	-439.259875	417.418012	994.032904	-429.270649	425.639061	974.976851	-297.323191	345.144971	834.987219	-445.066508	334.892227	750.983644	-427.262432	280.006263	679.214861	-422.406311	366.010841	740.365575	-407.661676	229.367792	561.387882	-405.263567	266.110377	574.497988	-313.604409	160.515148	515.625016	-356.230389	469.618375	487.443415	-358.963702	370.894364	482.386454	-316.542806	347.108123	471.623806	-430.456720	-214.400669	945.238206	-228.539388	-9.102681	81.950177	-433.265905	-9.494884	81.041978	-32.659492	
